name analog
datacolumns 19
datarows 55
range 0.268 0.295
endheader
time	ground_force_vx	ground_force_vy	ground_force_vz	ground_force_px	ground_force_py	ground_force_pz	l_ground_force_vx	l_ground_force_vy	l_ground_force_vz	l_ground_force_px	l_ground_force_py	l_ground_force_pz	ground_torque_x	ground_torque_y	ground_torque_z	l_ground_torque_x	l_ground_torque_y	l_ground_torque_z
0.268	-0.0	-0.0	-0.0	15.77957248687744	-15.351784706115724	-811.2119750976562	-0.0	-0.0	-0.0	-34.713356018066406	16.177074432373047	75.11737823486328	-0.0	-0.0	-0.0	-0.0	-0.0	-0.0
0.2685	-0.0	-0.0	-0.0	15.358389854431152	-15.96496868133545	-816.1707763671875	-0.0	-0.0	-0.0	-34.88880157470703	16.09066390991211	74.13223266601562	-0.0	-0.0	-0.0	-0.0	-0.0	-0.0
0.269	-0.0	-0.0	-0.0	14.00254249572754	-15.26583194732666	-817.6532592773438	-0.0	-0.0	-0.0	-34.97826385498047	16.184223175048828	76.11639404296875	-0.0	-0.0	-0.0	-0.0	-0.0	-0.0
0.2695	-0.0	-0.0	-0.0	12.486001014709473	-14.12767505645752	-819.6756591796875	-0.0	-0.0	-0.0	-34.88542175292969	16.450847625732422	74.76606750488281	-0.0	-0.0	-0.0	-0.0	-0.0	-0.0
0.27	-0.0	-0.0	-0.0	11.422395706176758	-13.140090942382812	-816.4837036132812	-0.0	-0.0	-0.0	-35.05091857910156	15.854930877685549	75.14330291748047	-0.0	-0.0	-0.0	-0.0	-0.0	-0.0
0.2705	-0.0	-0.0	-0.0	10.094439506530762	-12.749056816101074	-814.0121459960938	-0.0	-0.0	-0.0	-35.1306037902832	16.13129425048828	74.77887725830078	-0.0	-0.0	-0.0	-0.0	-0.0	-0.0
0.271	-0.0	-0.0	-0.0	9.898991584777832	-11.960334777832031	-810.4811401367188	-0.0	-0.0	-0.0	-35.137474060058594	16.034414291381836	75.81855010986328	-0.0	-0.0	-0.0	-0.0	-0.0	-0.0
0.2715	-0.0	-0.0	-0.0	9.28124713897705	-11.117844581604004	-804.2039794921875	-0.0	-0.0	-0.0	-35.210693359375	16.1275691986084	74.427490234375	-0.0	-0.0	-0.0	-0.0	-0.0	-0.0
0.272	-0.0	-0.0	-0.0	9.291157722473145	-10.32256031036377	-800.920166015625	-0.0	-0.0	-0.0	-35.23694610595703	16.114309310913086	76.1692886352539	-0.0	-0.0	-0.0	-0.0	-0.0	-0.0
0.2725	-0.0	-0.0	-0.0	9.178847312927246	-8.880284309387207	-797.44140625	-0.0	-0.0	-0.0	-34.808921813964844	15.94067668914795	74.82794189453125	-0.0	-0.0	-0.0	-0.0	-0.0	-0.0
0.273	-0.0	-0.0	-0.0	7.496946811676025	-7.216301441192627	-794.2499389648438	-0.0	-0.0	-0.0	-34.70988464355469	15.924625396728516	76.10682678222656	-0.0	-0.0	-0.0	-0.0	-0.0	-0.0
0.2735	-0.0	-0.0	-0.0	6.079219818115234	-7.365589618682861	-795.3995361328125	-0.0	-0.0	-0.0	-34.12443542480469	16.09825897216797	76.84622192382812	-0.0	-0.0	-0.0	-0.0	-0.0	-0.0
0.274	-0.0	-0.0	-0.0	6.776810169219971	-7.385080337524414	-798.9940795898438	-0.0	-0.0	-0.0	-34.555747985839844	16.275157928466797	76.09586334228516	-0.0	-0.0	-0.0	-0.0	-0.0	-0.0
0.2745	-0.0	-0.0	-0.0	7.77081298828125	-8.811256408691406	-804.5564575195312	-0.0	-0.0	-0.0	-34.73141098022461	16.365196228027344	76.18074035644531	-0.0	-0.0	-0.0	-0.0	-0.0	-0.0
0.275	-0.0	-0.0	-0.0	9.04780387878418	-10.323497772216797	-809.5007934570312	-0.0	-0.0	-0.0	-34.97826385498047	16.35003662109375	75.46662902832031	-0.0	-0.0	-0.0	-0.0	-0.0	-0.0
0.2755	-0.0	-0.0	-0.0	11.323553085327148	-9.724477767944336	-808.0512084960938	-0.0	-0.0	-0.0	-34.808345794677734	16.194534301757812	73.81761932373047	-0.0	-0.0	-0.0	-0.0	-0.0	-0.0
0.276	-0.0	-0.0	-0.0	12.778478622436523	-9.552207946777344	-806.626708984375	-0.0	-0.0	-0.0	-34.89176559448242	16.020553588867188	75.8056640625	-0.0	-0.0	-0.0	-0.0	-0.0	-0.0
0.2765	-0.0	-0.0	-0.0	13.759634017944336	-7.609393119812012	-803.8255004882812	-0.0	-0.0	-0.0	-34.96944808959961	16.11638832092285	74.7528076171875	-0.0	-0.0	-0.0	-0.0	-0.0	-0.0
0.277	-0.0	-0.0	-0.0	14.820917129516602	-6.152987957000732	-800.6470947265625	-0.0	-0.0	-0.0	-35.06191635131836	15.945051193237305	74.8097152709961	-0.0	-0.0	-0.0	-0.0	-0.0	-0.0
0.2775	-0.0	-0.0	-0.0	14.99623203277588	-2.9324448108673096	-799.9993286132812	-0.0	-0.0	-0.0	-34.718475341796875	15.947665214538574	75.4434814453125	-0.0	-0.0	-0.0	-0.0	-0.0	-0.0
0.278	-0.0	-0.0	-0.0	16.91480255126953	0.0862000957131385	-801.00048828125	-0.0	-0.0	-0.0	-34.89164352416992	15.933197021484377	74.47987365722656	-0.0	-0.0	-0.0	-0.0	-0.0	-0.0
0.2785	-0.0	-0.0	-0.0	15.398674964904783	1.728189468383789	-797.1614379882812	-0.0	-0.0	-0.0	-34.70427703857422	16.200172424316406	76.49657440185547	-0.0	-0.0	-0.0	-0.0	-0.0	-0.0
0.279	-0.0	-0.0	-0.0	13.65492343902588	1.980853796005249	-796.0789184570312	-0.0	-0.0	-0.0	-35.32780075073242	15.941312789916992	76.10237121582031	-0.0	-0.0	-0.0	-0.0	-0.0	-0.0
0.2795	-0.0	-0.0	-0.0	12.653718948364258	1.4430789947509766	-794.5763549804688	-0.0	-0.0	-0.0	-34.715370178222656	16.18901824951172	75.4547119140625	-0.0	-0.0	-0.0	-0.0	-0.0	-0.0
0.28	-0.0	-0.0	-0.0	11.064900398254396	0.9692566990852356	-792.5247192382812	-0.0	-0.0	-0.0	-35.13283920288086	16.101844787597656	75.41226959228516	-0.0	-0.0	-0.0	-0.0	-0.0	-0.0
0.2805	-0.0	-0.0	-0.0	10.064231872558594	0.2563640773296356	-790.3839721679688	-0.0	-0.0	-0.0	-35.31742858886719	16.37179183959961	75.44425201416016	-0.0	-0.0	-0.0	-0.0	-0.0	-0.0
0.281	-0.0	-0.0	-0.0	9.62375831604004	-0.0027416450902819	-791.7860107421875	-0.0	-0.0	-0.0	-35.2413330078125	15.932625770568848	76.82731628417969	-0.0	-0.0	-0.0	-0.0	-0.0	-0.0
0.28150000000000003	-0.0	-0.0	-0.0	10.00781536102295	1.061452865600586	-789.367919921875	-0.0	-0.0	-0.0	-34.97303771972656	15.943026542663574	75.134521484375	-0.0	-0.0	-0.0	-0.0	-0.0	-0.0
0.28200000000000003	-0.0	-0.0	-0.0	10.364431381225586	3.462754011154175	-793.199951171875	-0.0	-0.0	-0.0	-34.97311019897461	15.331109046936035	74.12164306640625	-0.0	-0.0	-0.0	-0.0	-0.0	-0.0
0.28250000000000003	-0.0	-0.0	-0.0	11.862350463867188	4.359453678131104	-791.8504028320312	-0.0	-0.0	-0.0	-34.78912734985352	15.929764747619627	75.79563903808594	-0.0	-0.0	-0.0	-0.0	-0.0	-0.0
0.28300000000000003	-0.0	-0.0	-0.0	10.358859062194824	5.26651668548584	-791.1643676757812	-0.0	-0.0	-0.0	-34.36715316772461	16.281972885131836	75.8254165649414	-0.0	-0.0	-0.0	-0.0	-0.0	-0.0
0.28350000000000003	-0.0	-0.0	-0.0	9.986432075500488	5.974307060241699	-790.1143798828125	-0.0	-0.0	-0.0	-34.468788146972656	15.929612159729004	74.11898803710938	-0.0	-0.0	-0.0	-0.0	-0.0	-0.0
0.28400000000000003	-0.0	-0.0	-0.0	9.191217422485352	5.8750081062316895	-790.0333862304688	-0.0	-0.0	-0.0	-35.05306625366211	15.83956813812256	74.07006072998047	-0.0	-0.0	-0.0	-0.0	-0.0	-0.0
0.28450000000000003	-0.0	-0.0	-0.0	8.551647186279297	5.441975116729736	-788.591064453125	-0.0	-0.0	-0.0	-34.980682373046875	16.279638290405273	76.13763427734375	-0.0	-0.0	-0.0	-0.0	-0.0	-0.0
0.28500000000000003	-0.0	-0.0	-0.0	6.953470230102539	5.625105381011963	-786.9338989257812	-0.0	-0.0	-0.0	-34.37110137939453	16.36728858947754	75.11310577392578	-0.0	-0.0	-0.0	-0.0	-0.0	-0.0
0.28550000000000003	-0.0	-0.0	-0.0	5.617825031280518	6.684780120849609	-787.91552734375	-0.0	-0.0	-0.0	-34.5473747253418	16.36975860595703	76.12903594970703	-0.0	-0.0	-0.0	-0.0	-0.0	-0.0
0.28600000000000003	-0.0	-0.0	-0.0	4.896918296813965	7.397823333740234	-788.6029663085938	-0.0	-0.0	-0.0	-34.884159088134766	16.099895477294922	75.79655456542969	-0.0	-0.0	-0.0	-0.0	-0.0	-0.0
0.28650000000000003	-0.0	-0.0	-0.0	5.751137733459473	7.238563537597656	-789.6444702148438	-0.0	-0.0	-0.0	-34.71445083618164	16.279911041259766	76.47173309326172	-0.0	-0.0	-0.0	-0.0	-0.0	-0.0
0.28700000000000003	-0.0	-0.0	-0.0	4.793972015380859	8.462713241577148	-787.9444580078125	-0.0	-0.0	-0.0	-34.79485321044922	16.540861129760742	75.8056640625	-0.0	-0.0	-0.0	-0.0	-0.0	-0.0
0.28750000000000003	-0.0	-0.0	-0.0	3.6553120613098153	9.187381744384766	-789.7103271484375	-0.0	-0.0	-0.0	-34.88657760620117	16.365522384643555	75.7882080078125	-0.0	-0.0	-0.0	-0.0	-0.0	-0.0
0.28800000000000003	-0.0	-0.0	-0.0	2.854736328125	9.46149730682373	-790.7698974609375	-0.0	-0.0	-0.0	-34.805908203125	16.104564666748047	76.14803314208984	-0.0	-0.0	-0.0	-0.0	-0.0	-0.0
0.2885	-0.0	-0.0	-0.0	2.6628546714782715	9.541436195373535	-792.1737060546875	-0.0	-0.0	-0.0	-34.89739990234375	16.117534637451172	76.8416519165039	-0.0	-0.0	-0.0	-0.0	-0.0	-0.0
0.289	-0.0	-0.0	-0.0	2.4956610202789307	9.744221687316896	-792.4561767578125	-0.0	-0.0	-0.0	-34.89094161987305	16.37232208251953	77.15911102294922	-0.0	-0.0	-0.0	-0.0	-0.0	-0.0
0.2895	-0.0	-0.0	-0.0	2.0584287643432617	11.315173149108888	-790.778564453125	-0.0	-0.0	-0.0	-35.148773193359375	15.757368087768556	75.4217300415039	-0.0	-0.0	-0.0	-0.0	-0.0	-0.0
0.29	-0.0	-0.0	-0.0	1.4338421821594238	12.46747589111328	-793.9228515625	-0.0	-0.0	-0.0	-34.714012145996094	16.022897720336914	76.46708679199219	-0.0	-0.0	-0.0	-0.0	-0.0	-0.0
0.2905	-0.0	-0.0	-0.0	2.2131755352020264	13.19343376159668	-795.3865966796875	-0.0	-0.0	-0.0	-34.445594787597656	16.63616943359375	75.4547119140625	-0.0	-0.0	-0.0	-0.0	-0.0	-0.0
0.291	-0.0	-0.0	-0.0	1.6036909818649292	13.893860816955566	-797.2350463867188	-0.0	-0.0	-0.0	-34.984275817871094	16.628259658813477	74.7921142578125	-0.0	-0.0	-0.0	-0.0	-0.0	-0.0
0.2915	-0.0	-0.0	-0.0	2.1183865070343018	13.885814666748049	-802.4411010742188	-0.0	-0.0	-0.0	-34.71381759643555	16.54254913330078	77.19404602050781	-0.0	-0.0	-0.0	-0.0	-0.0	-0.0
0.292	-0.0	-0.0	-0.0	2.045772075653076	12.557279586791992	-805.2982788085938	-0.0	-0.0	-0.0	-35.06386184692383	16.623046875	75.813232421875	-0.0	-0.0	-0.0	-0.0	-0.0	-0.0
0.2925	-0.0	-0.0	-0.0	1.4333710670471191	11.588951110839844	-808.1390380859375	-0.0	-0.0	-0.0	-34.879268646240234	15.99925708770752	75.82061767578125	-0.0	-0.0	-0.0	-0.0	-0.0	-0.0
0.293	-0.0	-0.0	-0.0	0.8803254961967468	11.391037940979004	-813.3811645507812	-0.0	-0.0	-0.0	-34.711753845214844	16.278865814208984	75.4840316772461	-0.0	-0.0	-0.0	-0.0	-0.0	-0.0
0.2935	-0.0	-0.0	-0.0	-0.71368408203125	10.449419021606444	-816.5367431640625	-0.0	-0.0	-0.0	-34.799346923828125	15.84386157989502	75.11812591552734	-0.0	-0.0	-0.0	-0.0	-0.0	-0.0
0.294	-0.0	-0.0	-0.0	-0.6358956694602966	11.127985954284668	-818.671142578125	-0.0	-0.0	-0.0	-35.153564453125	16.201810836791992	76.47209167480469	-0.0	-0.0	-0.0	-0.0	-0.0	-0.0
0.2945	-0.0	-0.0	-0.0	-2.5833728313446045	11.31396770477295	-818.6637573242188	-0.0	-0.0	-0.0	-34.45745086669922	15.922843933105469	75.8195571899414	-0.0	-0.0	-0.0	-0.0	-0.0	-0.0
0.295	-0.0	-0.0	-0.0	-4.638946533203125	11.681562423706056	-820.0693969726562	-0.0	-0.0	-0.0	-35.15024948120117	16.019824981689453	75.81246185302734	-0.0	-0.0	-0.0	-0.0	-0.0	-0.0
